<?xml version="1.0" standalone="no"?>
<!DOCTYPE svg PUBLIC "-//W3C//DTD SVG 20010904//EN"
 "http://www.w3.org/TR/2001/REC-SVG-20010904/DTD/svg10.dtd">
<svg version="1.0" xmlns="http://www.w3.org/2000/svg"
 width="500.000000pt" height="500.000000pt" viewBox="0 0 500.000000 500.000000"
 preserveAspectRatio="xMidYMid meet">

<g transform="translate(0.000000,500.000000) scale(0.100000,-0.100000)"
fill="#ffff" stroke="none">
<path d="M2083 3500 c-35 -14 -56 -55 -49 -94 11 -55 65 -87 116 -68 59 23
218 -105 274 -220 59 -121 69 -189 74 -492 l4 -279 -24 6 c-138 32 -198 39
-325 40 l-143 2 0 300 c0 256 -2 304 -16 323 -18 27 -55 29 -77 4 -15 -17 -17
-56 -17 -360 0 -282 2 -343 14 -355 11 -11 60 -16 213 -20 200 -6 273 -17 393
-57 34 -11 66 -18 72 -14 5 4 43 41 84 84 113 118 213 162 400 176 49 4 95 11
102 17 9 7 12 72 12 262 0 231 -1 253 -18 268 -26 23 -58 21 -76 -5 -13 -19
-16 -58 -16 -230 l0 -208 -32 0 c-68 -1 -188 -29 -249 -58 -35 -17 -92 -54
-127 -81 -34 -28 -65 -51 -68 -51 -3 0 -4 116 -1 258 5 297 15 354 79 481 46
90 102 148 188 195 40 22 53 24 75 16 34 -13 91 3 105 30 6 10 10 34 10 53 0
41 -46 87 -87 87 -29 0 -83 -50 -84 -77 0 -12 -20 -27 -61 -47 -110 -52 -243
-217 -263 -328 -7 -39 -25 -52 -25 -19 0 10 -21 60 -46 111 -56 112 -133 194
-221 236 -47 23 -64 37 -77 65 -22 50 -65 68 -113 49z"/>
<path d="M2150 3051 l0 -39 65 -7 c36 -3 85 -17 110 -29 25 -13 45 -20 45 -15
0 4 -15 27 -33 51 -39 52 -87 78 -144 78 l-43 0 0 -39z"/>
<path d="M2881 3079 c-59 -11 -87 -31 -122 -87 -33 -52 -38 -73 -11 -49 28 26
83 45 150 53 l63 7 -3 41 c-3 46 -9 49 -77 35z"/>
<path d="M2150 2891 l0 -38 76 -6 c51 -4 92 -14 125 -30 l49 -24 0 23 c0 60
-94 114 -197 114 l-53 0 0 -39z"/>
<path d="M2829 2911 c-79 -25 -119 -63 -119 -114 l0 -40 23 20 c38 36 89 55
154 61 l63 5 0 38 0 39 -47 -1 c-27 0 -60 -4 -74 -8z"/>
<path d="M2150 2731 l0 -38 89 -5 c71 -4 99 -11 135 -31 l45 -25 -6 31 c-12
68 -86 107 -200 107 l-63 0 0 -39z"/>
<path d="M2816 2744 c-64 -23 -104 -53 -115 -86 -19 -55 -14 -60 28 -32 49 32
121 54 177 54 50 0 53 4 47 48 -5 31 -7 32 -52 31 -25 0 -63 -7 -85 -15z"/>
<path d="M2150 2570 l0 -40 68 0 c68 0 164 -22 191 -44 12 -9 13 -6 8 23 -4
19 -15 43 -24 53 -23 26 -106 48 -180 48 l-63 0 0 -40z"/>
<path d="M2300 2000 c0 -44 -3 -80 -7 -80 -5 1 -19 7 -33 15 -60 34 -166 6
-211 -56 -53 -75 -28 -203 49 -251 50 -31 129 -31 171 0 30 22 31 22 31 2 0
-16 6 -20 35 -20 l35 0 0 235 0 235 -35 0 -35 0 0 -80z m-22 -146 c16 -18 22
-38 22 -70 0 -56 -12 -79 -50 -99 -46 -24 -87 -19 -121 14 -24 24 -29 38 -29
76 0 58 13 83 53 101 43 19 97 9 125 -22z"/>
<path d="M2850 1845 l0 -235 35 0 c29 0 35 4 35 22 0 20 1 20 19 4 55 -50 158
-39 215 24 77 86 53 226 -47 274 -43 20 -113 20 -147 1 -14 -8 -28 -14 -32
-15 -5 0 -8 36 -8 80 l0 80 -35 0 -35 0 0 -235z m243 17 c41 -36 41 -119 0
-164 -36 -40 -126 -31 -158 16 -20 27 -19 106 0 134 30 41 118 49 158 14z"/>
<path d="M1362 1983 c3 -35 1 -38 -24 -41 -24 -3 -28 -8 -28 -33 0 -24 4 -29
25 -29 25 0 25 -1 25 -79 0 -43 3 -92 6 -110 13 -62 84 -101 155 -86 24 5 29
12 29 36 0 28 -2 29 -43 29 -24 0 -48 5 -55 12 -8 8 -12 46 -12 105 l0 93 45
0 c43 0 45 1 45 30 0 29 -2 30 -45 30 l-45 0 0 40 0 40 -40 0 -41 0 3 -37z"/>
<path d="M1101 1949 c-74 -14 -115 -72 -92 -132 14 -36 46 -55 121 -70 78 -16
98 -38 60 -69 -20 -16 -34 -19 -74 -14 -27 3 -59 12 -72 21 -22 14 -24 14 -39
-15 l-16 -31 37 -15 c60 -25 128 -29 178 -10 52 20 74 42 82 84 10 48 -33 85
-120 105 -79 18 -107 38 -90 65 13 20 101 29 144 13 24 -8 29 -6 39 15 9 21 7
25 -17 37 -38 20 -89 25 -141 16z"/>
<path d="M1616 1852 c-11 -145 8 -201 77 -233 53 -24 81 -23 135 1 34 16 42
16 42 5 0 -10 11 -15 35 -15 l35 0 0 170 0 170 -35 0 -35 0 0 -100 c0 -107
-13 -150 -49 -170 -31 -16 -77 -12 -102 9 -22 18 -24 27 -27 135 -3 105 -6
116 -22 116 -10 0 -25 3 -33 6 -12 4 -16 -13 -21 -94z"/>
<path d="M2448 1941 c-16 -5 -13 -17 28 -106 83 -183 96 -217 90 -241 -11 -41
-35 -56 -77 -49 -35 6 -39 5 -45 -20 -8 -34 -4 -37 56 -43 88 -8 88 -8 239
326 62 138 63 148 11 140 -17 -2 -34 -29 -77 -126 -31 -68 -59 -120 -62 -115
-4 4 -17 31 -28 58 -80 187 -85 195 -135 176z"/>
<path d="M3277 1944 c-4 -4 -7 -54 -7 -110 0 -120 16 -173 63 -206 44 -31 124
-31 166 0 30 22 31 22 31 2 0 -16 6 -20 35 -20 l35 0 0 169 0 169 -34 -1 -34
-1 -4 -114 c-3 -110 -4 -114 -31 -138 -38 -32 -90 -32 -122 1 -24 23 -25 31
-25 135 0 81 -3 110 -12 110 -7 0 -22 3 -33 6 -11 3 -24 2 -28 -2z"/>
<path d="M3759 1927 c-72 -38 -100 -128 -65 -211 29 -71 137 -104 219 -68 l47
21 0 -33 c0 -54 -38 -81 -113 -81 -38 0 -74 6 -93 16 -31 16 -32 16 -43 -8
-16 -36 -15 -39 32 -58 54 -22 162 -23 202 -2 58 30 78 62 86 134 11 112 11
296 -1 303 -17 10 -70 -1 -70 -15 0 -9 -10 -8 -37 6 -50 26 -110 24 -164 -4z
m133 -47 c71 -20 92 -99 41 -152 -22 -23 -35 -28 -76 -28 -40 0 -53 5 -78 29
-46 47 -35 121 23 146 40 17 44 17 90 5z"/>
</g>
</svg>
